<svg width="118" height="42" viewBox="0 0 118 42" fill="none" xmlns="http://www.w3.org/2000/svg">
<path d="M57.326 6.256V6.616C57.098 6.664 56.846 6.802 56.57 7.03C56.294 7.246 56.072 7.63 55.904 8.182L52.502 19.09C52.478 19.09 52.454 19.09 52.43 19.09C52.406 19.09 52.382 19.09 52.358 19.09C52.334 19.09 52.31 19.09 52.286 19.09C52.262 19.09 52.238 19.09 52.214 19.09L48.398 7.768C48.242 7.3 48.068 6.994 47.876 6.85C47.684 6.706 47.504 6.628 47.336 6.616V6.256C47.552 6.268 47.822 6.28 48.146 6.292C48.47 6.304 48.782 6.31 49.082 6.31C49.55 6.31 49.988 6.304 50.396 6.292C50.804 6.28 51.134 6.268 51.386 6.256V6.616C51.026 6.628 50.738 6.664 50.522 6.724C50.318 6.784 50.198 6.916 50.162 7.12C50.138 7.324 50.198 7.66 50.342 8.128L53.024 16.426L52.772 16.642L55.148 9.172C55.364 8.512 55.46 8.002 55.436 7.642C55.424 7.27 55.292 7.012 55.04 6.868C54.788 6.712 54.41 6.628 53.906 6.616V6.256C54.254 6.268 54.608 6.28 54.968 6.292C55.328 6.304 55.664 6.31 55.976 6.31C56.288 6.31 56.546 6.304 56.75 6.292C56.954 6.28 57.146 6.268 57.326 6.256ZM44.744 6.256V6.616C44.432 6.64 44.204 6.7 44.06 6.796C43.928 6.892 43.862 7.048 43.862 7.264C43.874 7.468 43.94 7.756 44.06 8.128L46.85 16.642L46.4 17.092L48.92 9.046L49.19 9.478L46.22 19.09C46.196 19.09 46.172 19.09 46.148 19.09C46.124 19.09 46.1 19.09 46.076 19.09C46.052 19.09 46.028 19.09 46.004 19.09C45.98 19.09 45.956 19.09 45.932 19.09L42.116 7.768C41.96 7.3 41.762 6.994 41.522 6.85C41.282 6.706 41.066 6.628 40.874 6.616V6.256C41.114 6.268 41.408 6.28 41.756 6.292C42.116 6.304 42.464 6.31 42.8 6.31C43.196 6.31 43.562 6.304 43.898 6.292C44.246 6.28 44.528 6.268 44.744 6.256ZM59.4764 19.126C58.9844 19.126 58.5584 19.036 58.1984 18.856C57.8384 18.664 57.5624 18.4 57.3704 18.064C57.1904 17.728 57.1004 17.338 57.1004 16.894C57.1004 16.366 57.2204 15.934 57.4604 15.598C57.7124 15.262 58.0304 14.992 58.4144 14.788C58.7984 14.584 59.2004 14.416 59.6204 14.284C60.0524 14.14 60.4604 14.008 60.8444 13.888C61.2284 13.756 61.5404 13.606 61.7804 13.438C62.0324 13.27 62.1584 13.048 62.1584 12.772V11.656C62.1584 11.152 62.0804 10.768 61.9244 10.504C61.7804 10.24 61.5824 10.066 61.3304 9.982C61.0784 9.886 60.7964 9.838 60.4844 9.838C60.1844 9.838 59.8604 9.88 59.5124 9.964C59.1764 10.048 58.9064 10.222 58.7024 10.486C58.9304 10.534 59.1284 10.654 59.2964 10.846C59.4644 11.038 59.5484 11.284 59.5484 11.584C59.5484 11.884 59.4524 12.124 59.2604 12.304C59.0684 12.472 58.8224 12.556 58.5224 12.556C58.1744 12.556 57.9164 12.448 57.7484 12.232C57.5924 12.004 57.5144 11.752 57.5144 11.476C57.5144 11.164 57.5924 10.912 57.7484 10.72C57.9044 10.528 58.1024 10.348 58.3424 10.18C58.6184 9.988 58.9724 9.826 59.4044 9.694C59.8484 9.55 60.3464 9.478 60.8984 9.478C61.3904 9.478 61.8104 9.538 62.1584 9.658C62.5064 9.766 62.7944 9.928 63.0224 10.144C63.3344 10.432 63.5384 10.786 63.6344 11.206C63.7304 11.614 63.7784 12.106 63.7784 12.682V17.686C63.7784 17.986 63.8204 18.202 63.9044 18.334C64.0004 18.466 64.1444 18.532 64.3364 18.532C64.4684 18.532 64.5944 18.502 64.7144 18.442C64.8344 18.382 64.9784 18.286 65.1464 18.154L65.3444 18.46C65.0924 18.652 64.8524 18.814 64.6244 18.946C64.3964 19.066 64.0904 19.126 63.7064 19.126C63.3584 19.126 63.0704 19.066 62.8424 18.946C62.6144 18.826 62.4404 18.652 62.3204 18.424C62.2124 18.184 62.1584 17.884 62.1584 17.524C61.8344 18.064 61.4444 18.466 60.9884 18.73C60.5444 18.994 60.0404 19.126 59.4764 19.126ZM60.1244 18.406C60.5204 18.406 60.8864 18.292 61.2224 18.064C61.5704 17.836 61.8824 17.494 62.1584 17.038V13.51C62.0144 13.714 61.8044 13.888 61.5284 14.032C61.2524 14.164 60.9524 14.302 60.6284 14.446C60.3044 14.578 59.9924 14.74 59.6924 14.932C59.4044 15.112 59.1644 15.352 58.9724 15.652C58.7804 15.952 58.6844 16.342 58.6844 16.822C58.6844 17.302 58.8104 17.686 59.0624 17.974C59.3264 18.262 59.6804 18.406 60.1244 18.406ZM71.9333 9.478C72.3893 9.478 72.7673 9.538 73.0673 9.658C73.3793 9.778 73.6373 9.946 73.8413 10.162C74.0693 10.402 74.2313 10.702 74.3273 11.062C74.4233 11.422 74.4713 11.908 74.4713 12.52V17.326C74.4713 17.83 74.5733 18.172 74.7773 18.352C74.9933 18.532 75.3473 18.622 75.8393 18.622V19C75.6353 18.988 75.3233 18.976 74.9033 18.964C74.4833 18.94 74.0753 18.928 73.6793 18.928C73.2833 18.928 72.8933 18.94 72.5093 18.964C72.1373 18.976 71.8553 18.988 71.6633 19V18.622C72.0953 18.622 72.4013 18.532 72.5813 18.352C72.7613 18.172 72.8513 17.83 72.8513 17.326V12.124C72.8513 11.752 72.8213 11.41 72.7613 11.098C72.7013 10.786 72.5633 10.534 72.3473 10.342C72.1433 10.15 71.8253 10.054 71.3933 10.054C70.8893 10.054 70.4453 10.198 70.0613 10.486C69.6893 10.774 69.3953 11.17 69.1793 11.674C68.9753 12.166 68.8733 12.718 68.8733 13.33V17.326C68.8733 17.83 68.9633 18.172 69.1433 18.352C69.3233 18.532 69.6293 18.622 70.0613 18.622V19C69.8693 18.988 69.5813 18.976 69.1973 18.964C68.8253 18.94 68.4413 18.928 68.0453 18.928C67.6493 18.928 67.2413 18.94 66.8213 18.964C66.4013 18.976 66.0893 18.988 65.8853 19V18.622C66.3773 18.622 66.7253 18.532 66.9293 18.352C67.1453 18.172 67.2533 17.83 67.2533 17.326V11.692C67.2533 11.152 67.1573 10.756 66.9653 10.504C66.7733 10.24 66.4133 10.108 65.8853 10.108V9.73C66.2693 9.766 66.6413 9.784 67.0013 9.784C67.3493 9.784 67.6793 9.766 67.9913 9.73C68.3153 9.682 68.6093 9.616 68.8733 9.532V11.656C69.1853 10.84 69.6173 10.276 70.1693 9.964C70.7333 9.64 71.3213 9.478 71.9333 9.478ZM84.8155 4.888V17.038C84.8155 17.578 84.9115 17.98 85.1035 18.244C85.3075 18.496 85.6675 18.622 86.1835 18.622V19C85.8115 18.964 85.4395 18.946 85.0675 18.946C84.7195 18.946 84.3835 18.964 84.0595 19C83.7475 19.036 83.4595 19.102 83.1955 19.198V7.048C83.1955 6.508 83.0995 6.112 82.9075 5.86C82.7155 5.596 82.3555 5.464 81.8275 5.464V5.086C82.2115 5.122 82.5835 5.14 82.9435 5.14C83.2915 5.14 83.6215 5.122 83.9335 5.086C84.2575 5.038 84.5515 4.972 84.8155 4.888ZM81.0355 9.478C81.5635 9.478 82.0555 9.604 82.5115 9.856C82.9795 10.108 83.2915 10.54 83.4475 11.152L83.2135 11.332C83.0455 10.828 82.7815 10.462 82.4215 10.234C82.0735 10.006 81.6595 9.892 81.1795 9.892C80.4715 9.892 79.8775 10.258 79.3975 10.99C78.9295 11.722 78.7015 12.85 78.7135 14.374C78.7135 15.346 78.8035 16.156 78.9835 16.804C79.1755 17.44 79.4515 17.92 79.8115 18.244C80.1835 18.556 80.6335 18.712 81.1615 18.712C81.6655 18.712 82.1215 18.496 82.5295 18.064C82.9375 17.632 83.1835 16.996 83.2675 16.156L83.4835 16.408C83.3875 17.32 83.0935 18.022 82.6015 18.514C82.1215 19.006 81.4675 19.252 80.6395 19.252C79.8955 19.252 79.2415 19.072 78.6775 18.712C78.1255 18.352 77.6995 17.812 77.3995 17.092C77.1115 16.372 76.9675 15.466 76.9675 14.374C76.9675 13.282 77.1535 12.376 77.5255 11.656C77.9095 10.924 78.4075 10.378 79.0195 10.018C79.6435 9.658 80.3155 9.478 81.0355 9.478ZM91.4585 9.478C92.5145 9.478 93.3365 9.802 93.9245 10.45C94.5245 11.086 94.8245 12.082 94.8245 13.438H88.4705L88.4525 13.096H93.0965C93.1205 12.508 93.0725 11.968 92.9525 11.476C92.8325 10.972 92.6405 10.57 92.3765 10.27C92.1245 9.97 91.7945 9.82 91.3865 9.82C90.8345 9.82 90.3425 10.096 89.9105 10.648C89.4905 11.2 89.2385 12.076 89.1545 13.276L89.2085 13.348C89.1845 13.528 89.1665 13.726 89.1545 13.942C89.1425 14.158 89.1365 14.374 89.1365 14.59C89.1365 15.406 89.2685 16.108 89.5325 16.696C89.7965 17.284 90.1385 17.734 90.5585 18.046C90.9905 18.346 91.4345 18.496 91.8905 18.496C92.2505 18.496 92.5925 18.442 92.9165 18.334C93.2405 18.214 93.5405 18.022 93.8165 17.758C94.0925 17.494 94.3325 17.14 94.5365 16.696L94.8965 16.84C94.7645 17.236 94.5485 17.62 94.2485 17.992C93.9485 18.364 93.5705 18.67 93.1145 18.91C92.6585 19.138 92.1305 19.252 91.5305 19.252C90.6665 19.252 89.9225 19.054 89.2985 18.658C88.6865 18.262 88.2125 17.716 87.8765 17.02C87.5525 16.312 87.3905 15.502 87.3905 14.59C87.3905 13.534 87.5585 12.628 87.8945 11.872C88.2305 11.104 88.7045 10.516 89.3165 10.108C89.9285 9.688 90.6425 9.478 91.4585 9.478ZM101.788 9.478C102.112 9.478 102.394 9.544 102.634 9.676C102.886 9.808 103.078 9.982 103.21 10.198C103.354 10.402 103.426 10.636 103.426 10.9C103.426 11.2 103.33 11.464 103.138 11.692C102.958 11.92 102.712 12.034 102.4 12.034C102.148 12.034 101.926 11.956 101.734 11.8C101.542 11.632 101.446 11.398 101.446 11.098C101.446 10.87 101.506 10.678 101.626 10.522C101.758 10.354 101.902 10.222 102.058 10.126C101.974 10.006 101.848 9.946 101.68 9.946C101.308 9.946 100.966 10.06 100.654 10.288C100.342 10.504 100.078 10.786 99.862 11.134C99.646 11.482 99.478 11.854 99.358 12.25C99.238 12.634 99.178 12.994 99.178 13.33V17.146C99.178 17.734 99.346 18.13 99.682 18.334C100.03 18.526 100.498 18.622 101.086 18.622V19C100.81 18.988 100.42 18.976 99.916 18.964C99.412 18.94 98.878 18.928 98.314 18.928C97.906 18.928 97.498 18.94 97.09 18.964C96.694 18.976 96.394 18.988 96.19 19V18.622C96.682 18.622 97.03 18.532 97.234 18.352C97.45 18.172 97.558 17.83 97.558 17.326V11.692C97.558 11.152 97.462 10.756 97.27 10.504C97.078 10.24 96.718 10.108 96.19 10.108V9.73C96.574 9.766 96.946 9.784 97.306 9.784C97.654 9.784 97.984 9.766 98.296 9.73C98.62 9.682 98.914 9.616 99.178 9.532V11.782C99.31 11.434 99.496 11.086 99.736 10.738C99.988 10.378 100.288 10.078 100.636 9.838C100.984 9.598 101.368 9.478 101.788 9.478ZM44.924 28.73V29.108C44.624 29.108 44.36 29.132 44.132 29.18C43.904 29.216 43.754 29.336 43.682 29.54C43.61 29.744 43.664 30.104 43.844 30.62L45.716 35.984L45.59 35.966L48.236 28.658L48.596 28.802L45.302 38.09C45.254 38.09 45.206 38.09 45.158 38.09C45.11 38.09 45.056 38.09 44.996 38.09L42.044 30.116C41.852 29.636 41.66 29.348 41.468 29.252C41.288 29.156 41.132 29.108 41 29.108V28.73C41.24 28.766 41.486 28.796 41.738 28.82C42.002 28.832 42.284 28.838 42.584 28.838C42.956 28.838 43.346 28.826 43.754 28.802C44.174 28.778 44.564 28.754 44.924 28.73ZM54.806 28.73V29.09C54.578 29.114 54.362 29.216 54.158 29.396C53.966 29.564 53.792 29.882 53.636 30.35L51.026 38.09C50.978 38.09 50.93 38.09 50.882 38.09C50.834 38.09 50.78 38.09 50.72 38.09L47.822 30.728L48.236 28.658C48.308 28.658 48.374 28.658 48.434 28.658C48.506 28.658 48.578 28.658 48.65 28.658L51.458 36.092L51.314 36.2L53.096 30.782C53.228 30.374 53.276 30.056 53.24 29.828C53.216 29.588 53.096 29.414 52.88 29.306C52.676 29.186 52.358 29.114 51.926 29.09V28.73C52.142 28.742 52.328 28.754 52.484 28.766C52.64 28.766 52.79 28.772 52.934 28.784C53.09 28.784 53.258 28.784 53.438 28.784C53.714 28.784 53.96 28.778 54.176 28.766C54.404 28.754 54.614 28.742 54.806 28.73ZM57.4256 24.23C57.7376 24.23 58.0076 24.344 58.2356 24.572C58.4636 24.8 58.5776 25.07 58.5776 25.382C58.5776 25.694 58.4636 25.964 58.2356 26.192C58.0076 26.42 57.7376 26.534 57.4256 26.534C57.1136 26.534 56.8436 26.42 56.6156 26.192C56.3876 25.964 56.2736 25.694 56.2736 25.382C56.2736 25.07 56.3876 24.8 56.6156 24.572C56.8436 24.344 57.1136 24.23 57.4256 24.23ZM58.3616 28.532V36.326C58.3616 36.83 58.4636 37.172 58.6676 37.352C58.8836 37.532 59.2376 37.622 59.7296 37.622V38C59.5256 37.988 59.2136 37.976 58.7936 37.964C58.3856 37.94 57.9716 37.928 57.5516 37.928C57.1436 37.928 56.7296 37.94 56.3096 37.964C55.8896 37.976 55.5776 37.988 55.3736 38V37.622C55.8656 37.622 56.2136 37.532 56.4176 37.352C56.6336 37.172 56.7416 36.83 56.7416 36.326V30.692C56.7416 30.152 56.6456 29.756 56.4536 29.504C56.2616 29.24 55.9016 29.108 55.3736 29.108V28.73C55.7576 28.766 56.1296 28.784 56.4896 28.784C56.8376 28.784 57.1676 28.766 57.4796 28.73C57.8036 28.682 58.0976 28.616 58.3616 28.532ZM63.545 25.742V28.748H66.209V29.108H63.545V36.074C63.545 36.638 63.647 37.034 63.851 37.262C64.055 37.49 64.337 37.604 64.697 37.604C65.057 37.604 65.369 37.46 65.633 37.172C65.897 36.872 66.125 36.374 66.317 35.678L66.677 35.768C66.557 36.464 66.317 37.052 65.957 37.532C65.609 38.012 65.069 38.252 64.337 38.252C63.929 38.252 63.593 38.198 63.329 38.09C63.065 37.994 62.831 37.85 62.627 37.658C62.363 37.382 62.177 37.052 62.069 36.668C61.973 36.284 61.925 35.774 61.925 35.138V29.108H60.197V28.748H61.925V25.994C62.225 25.982 62.513 25.958 62.789 25.922C63.065 25.886 63.317 25.826 63.545 25.742ZM69.8363 23.906V30.638C70.1483 29.822 70.5803 29.258 71.1323 28.946C71.6963 28.634 72.2843 28.478 72.8963 28.478C73.3523 28.478 73.7303 28.538 74.0303 28.658C74.3423 28.778 74.6003 28.946 74.8043 29.162C75.0323 29.402 75.1943 29.702 75.2903 30.062C75.3863 30.422 75.4343 30.908 75.4343 31.52V36.326C75.4343 36.83 75.5363 37.172 75.7403 37.352C75.9563 37.532 76.3103 37.622 76.8023 37.622V38C76.5983 37.988 76.2863 37.976 75.8663 37.964C75.4463 37.94 75.0383 37.928 74.6423 37.928C74.2463 37.928 73.8563 37.94 73.4723 37.964C73.1003 37.976 72.8183 37.988 72.6263 38V37.622C73.0583 37.622 73.3643 37.532 73.5443 37.352C73.7243 37.172 73.8143 36.83 73.8143 36.326V31.124C73.8143 30.752 73.7843 30.41 73.7243 30.098C73.6643 29.786 73.5263 29.534 73.3103 29.342C73.1063 29.15 72.7883 29.054 72.3563 29.054C71.8643 29.054 71.4263 29.192 71.0423 29.468C70.6703 29.744 70.3763 30.128 70.1603 30.62C69.9443 31.112 69.8363 31.676 69.8363 32.312V36.326C69.8363 36.83 69.9263 37.172 70.1063 37.352C70.2863 37.532 70.5923 37.622 71.0243 37.622V38C70.8323 37.988 70.5443 37.976 70.1603 37.964C69.7883 37.94 69.4043 37.928 69.0083 37.928C68.6123 37.928 68.2043 37.94 67.7843 37.964C67.3643 37.976 67.0523 37.988 66.8483 38V37.622C67.3403 37.622 67.6883 37.532 67.8923 37.352C68.1083 37.172 68.2163 36.83 68.2163 36.326V26.066C68.2163 25.526 68.1203 25.13 67.9283 24.878C67.7363 24.614 67.3763 24.482 66.8483 24.482V24.104C67.2323 24.14 67.6043 24.158 67.9643 24.158C68.3123 24.158 68.6423 24.14 68.9543 24.104C69.2783 24.056 69.5723 23.99 69.8363 23.906ZM81.1927 41.384V41.042C81.7327 41.03 82.1827 40.898 82.5427 40.646C82.9147 40.394 83.1907 39.974 83.3707 39.386C83.5627 38.81 83.6587 38.036 83.6587 37.064V27.164C83.6587 26.72 83.6227 26.396 83.5507 26.192C83.4787 25.976 83.3347 25.832 83.1187 25.76C82.9147 25.676 82.6087 25.628 82.2007 25.616V25.256C82.4527 25.268 82.7827 25.28 83.1907 25.292C83.5987 25.304 84.0247 25.31 84.4687 25.31C84.9127 25.31 85.3387 25.304 85.7467 25.292C86.1667 25.28 86.5147 25.268 86.7907 25.256V25.616C86.3827 25.628 86.0707 25.676 85.8547 25.76C85.6507 25.832 85.5127 25.976 85.4407 26.192C85.3687 26.396 85.3327 26.72 85.3327 27.164V33.752C85.3327 34.244 85.3267 34.778 85.3147 35.354C85.3027 35.93 85.2727 36.488 85.2247 37.028C85.1887 37.568 85.1227 38.042 85.0267 38.45C84.8227 39.29 84.3907 39.986 83.7307 40.538C83.0827 41.102 82.2367 41.384 81.1927 41.384ZM95.8717 28.532V36.056C95.8717 36.596 95.9677 36.998 96.1597 37.262C96.3637 37.514 96.7237 37.64 97.2397 37.64V38.018C96.8677 37.982 96.4957 37.964 96.1237 37.964C95.7757 37.964 95.4397 37.982 95.1157 38.018C94.8037 38.054 94.5157 38.12 94.2517 38.216V36.092C93.9517 36.872 93.5257 37.43 92.9737 37.766C92.4337 38.09 91.8757 38.252 91.2997 38.252C90.8797 38.252 90.5137 38.192 90.2017 38.072C89.8897 37.952 89.6317 37.784 89.4277 37.568C89.1997 37.328 89.0437 37.016 88.9597 36.632C88.8757 36.248 88.8337 35.774 88.8337 35.21V30.692C88.8337 30.152 88.7377 29.756 88.5457 29.504C88.3537 29.24 87.9937 29.108 87.4657 29.108V28.73C87.8497 28.766 88.2217 28.784 88.5817 28.784C88.9297 28.784 89.2597 28.766 89.5717 28.73C89.8957 28.682 90.1897 28.616 90.4537 28.532V35.606C90.4537 35.978 90.4777 36.32 90.5257 36.632C90.5737 36.944 90.6937 37.196 90.8857 37.388C91.0777 37.58 91.3897 37.676 91.8217 37.676C92.2897 37.676 92.7037 37.532 93.0637 37.244C93.4357 36.956 93.7237 36.566 93.9277 36.074C94.1437 35.582 94.2517 35.03 94.2517 34.418V30.692C94.2517 30.152 94.1557 29.756 93.9637 29.504C93.7717 29.24 93.4117 29.108 92.8837 29.108V28.73C93.2677 28.766 93.6397 28.784 93.9997 28.784C94.3477 28.784 94.6777 28.766 94.9897 28.73C95.3137 28.682 95.6077 28.616 95.8717 28.532ZM101.021 23.888V36.326C101.021 36.83 101.123 37.172 101.327 37.352C101.543 37.532 101.897 37.622 102.389 37.622V38C102.185 37.988 101.873 37.976 101.453 37.964C101.045 37.94 100.631 37.928 100.211 37.928C99.8027 37.928 99.3887 37.94 98.9687 37.964C98.5487 37.976 98.2367 37.988 98.0327 38V37.622C98.5247 37.622 98.8727 37.532 99.0767 37.352C99.2927 37.172 99.4007 36.83 99.4007 36.326V26.048C99.4007 25.508 99.3047 25.112 99.1127 24.86C98.9207 24.596 98.5607 24.464 98.0327 24.464V24.086C98.4167 24.122 98.7887 24.14 99.1487 24.14C99.4967 24.14 99.8267 24.122 100.139 24.086C100.463 24.038 100.757 23.972 101.021 23.888ZM105.361 24.23C105.673 24.23 105.943 24.344 106.171 24.572C106.399 24.8 106.513 25.07 106.513 25.382C106.513 25.694 106.399 25.964 106.171 26.192C105.943 26.42 105.673 26.534 105.361 26.534C105.049 26.534 104.779 26.42 104.551 26.192C104.323 25.964 104.209 25.694 104.209 25.382C104.209 25.07 104.323 24.8 104.551 24.572C104.779 24.344 105.049 24.23 105.361 24.23ZM106.297 28.532V36.326C106.297 36.83 106.399 37.172 106.603 37.352C106.819 37.532 107.173 37.622 107.665 37.622V38C107.461 37.988 107.149 37.976 106.729 37.964C106.321 37.94 105.907 37.928 105.487 37.928C105.079 37.928 104.665 37.94 104.245 37.964C103.825 37.976 103.513 37.988 103.309 38V37.622C103.801 37.622 104.149 37.532 104.353 37.352C104.569 37.172 104.677 36.83 104.677 36.326V30.692C104.677 30.152 104.581 29.756 104.389 29.504C104.197 29.24 103.837 29.108 103.309 29.108V28.73C103.693 28.766 104.065 28.784 104.425 28.784C104.773 28.784 105.103 28.766 105.415 28.73C105.739 28.682 106.033 28.616 106.297 28.532ZM111.139 38.126C110.647 38.126 110.221 38.036 109.861 37.856C109.501 37.664 109.225 37.4 109.033 37.064C108.853 36.728 108.763 36.338 108.763 35.894C108.763 35.366 108.883 34.934 109.123 34.598C109.375 34.262 109.693 33.992 110.077 33.788C110.461 33.584 110.863 33.416 111.283 33.284C111.715 33.14 112.123 33.008 112.507 32.888C112.891 32.756 113.203 32.606 113.443 32.438C113.695 32.27 113.821 32.048 113.821 31.772V30.656C113.821 30.152 113.743 29.768 113.587 29.504C113.443 29.24 113.245 29.066 112.993 28.982C112.741 28.886 112.459 28.838 112.147 28.838C111.847 28.838 111.523 28.88 111.175 28.964C110.839 29.048 110.569 29.222 110.365 29.486C110.593 29.534 110.791 29.654 110.959 29.846C111.127 30.038 111.211 30.284 111.211 30.584C111.211 30.884 111.115 31.124 110.923 31.304C110.731 31.472 110.485 31.556 110.185 31.556C109.837 31.556 109.579 31.448 109.411 31.232C109.255 31.004 109.177 30.752 109.177 30.476C109.177 30.164 109.255 29.912 109.411 29.72C109.567 29.528 109.765 29.348 110.005 29.18C110.281 28.988 110.635 28.826 111.067 28.694C111.511 28.55 112.009 28.478 112.561 28.478C113.053 28.478 113.473 28.538 113.821 28.658C114.169 28.766 114.457 28.928 114.685 29.144C114.997 29.432 115.201 29.786 115.297 30.206C115.393 30.614 115.441 31.106 115.441 31.682V36.686C115.441 36.986 115.483 37.202 115.567 37.334C115.663 37.466 115.807 37.532 115.999 37.532C116.131 37.532 116.257 37.502 116.377 37.442C116.497 37.382 116.641 37.286 116.809 37.154L117.007 37.46C116.755 37.652 116.515 37.814 116.287 37.946C116.059 38.066 115.753 38.126 115.369 38.126C115.021 38.126 114.733 38.066 114.505 37.946C114.277 37.826 114.103 37.652 113.983 37.424C113.875 37.184 113.821 36.884 113.821 36.524C113.497 37.064 113.107 37.466 112.651 37.73C112.207 37.994 111.703 38.126 111.139 38.126ZM111.787 37.406C112.183 37.406 112.549 37.292 112.885 37.064C113.233 36.836 113.545 36.494 113.821 36.038V32.51C113.677 32.714 113.467 32.888 113.191 33.032C112.915 33.164 112.615 33.302 112.291 33.446C111.967 33.578 111.655 33.74 111.355 33.932C111.067 34.112 110.827 34.352 110.635 34.652C110.443 34.952 110.347 35.342 110.347 35.822C110.347 36.302 110.473 36.686 110.725 36.974C110.989 37.262 111.343 37.406 111.787 37.406Z" fill="currentColor"/>
<path d="M31.7623 23.5432C35.6313 27.2498 37.7481 30.4779 36.9817 32.0382C35.7241 34.5694 27.2197 31.5892 17.9827 25.3844C8.74912 19.1796 2.27714 12.0975 3.53305 9.56812C4.3163 7.99048 8.47228 8.79837 13.3288 10.9637" stroke="#067E89" stroke-width="2" stroke-linecap="round" stroke-linejoin="round"/>
<path d="M11.9012 29.3853C10.804 28.2584 9.9336 26.9205 9.33977 25.4482C8.74595 23.9758 8.44031 22.3977 8.44031 20.804C8.44031 19.2104 8.74595 17.6323 9.33977 16.1599C9.9336 14.6875 10.804 13.3497 11.9012 12.2228M11.9012 29.3853C12.9985 30.5122 14.3011 31.4061 15.7347 32.016C17.1683 32.6258 18.7049 32.9397 20.2566 32.9397C21.8084 32.9397 23.3449 32.6258 24.7786 32.016C26.2122 31.4061 27.5148 30.5122 28.612 29.3853C29.7093 28.2584 30.5797 26.9205 31.1735 25.4482C31.7673 23.9758 32.073 22.3977 32.073 20.804C32.073 19.2104 31.7673 17.6323 31.1735 16.1599C30.5797 14.6875 29.7093 13.3497 28.612 12.2228C27.5148 11.0959 26.2122 10.202 24.7786 9.59212M11.9012 29.3853C16.3012 23.8771 16.6008 13.3535 11.9012 12.2228M24.7786 9.59212C23.3449 8.98225 21.8084 8.66835 20.2566 8.66835C18.7049 8.66835 17.1683 8.98225 15.7347 9.59212C14.3011 10.202 12.9985 11.0959 11.9012 12.2228M24.7786 9.59212C19.5 16.1599 31 23.8413 27 30.7695" stroke="#067E89" stroke-width="2" stroke-linecap="round" stroke-linejoin="round"/>
<path d="M12.4607 27.8164C12.314 28.31 12.1949 28.5 12.1949 28.5L8.99993 25L8.99985 19.5L12.1949 12.9917L14.4851 15.4285L15.5 20L12.4607 27.8164Z" fill="#067E89"/>
<path d="M12.1949 12.9917C14.0148 25.596 12.1949 28.5 12.1949 28.5M12.1949 12.9917L14.4851 15.4285L15.5 20L12.1949 28.5M12.1949 12.9917L8.99985 19.5L8.99993 25L12.1949 28.5" stroke="#067E89"/>
<path d="M29 28C29 28 28.9584 27.921 28.8725 27.7168L24.5 18L24.0979 10.1687L29 13L31.9752 18.8404L29 28Z" fill="#067E89"/>
<path d="M24.0979 10.1687C27.5441 25.2354 29 28 29 28M24.0979 10.1687L29 13L31.9752 18.8404L29 28M24.0979 10.1687L24.5 18L29 28" stroke="#067E89"/>
</svg>
